# File created by Blade
# Date/Time:  Wed Jan 21 16:27:40 2015
# Frame Rate: 120.000 fps
#------------------------------------------------------
:FULLY-SPECIFIED
:DEGREES
1822
root 20.750360 22.814365 -10.613607 -181.918067 -4.869805 -181.540747
Spine 55.463043 4.103994 -0.661896
Head -29.237865 -5.303963 11.599710
LeftShoulder 11.385506 -38.047349 3.057059
LeftArm 30.995778 18.399556 -45.018432
LeftForeArm 2.346237 0.000000 8.371395
LeftHand -3.555661 -0.000000 6.213002
LeftHandThumb1 -26.253704 0.000000 33.147579
RightShoulder 10.612998 3.122924 -2.337588
RightArm 53.275578 4.584495 41.576916
RightForeArm -30.079869 -0.000000 18.679333
RightHand -2.818762 -0.000000 2.485835
RightHandThumb1 -24.326973 -0.000000 -32.862282
LeftUpLeg -57.535755 7.935910 12.278876
LeftLeg 93.431292 -0.000000 -0.000000
LeftFoot -51.631401 24.482969 -24.404207
LeftToeBase 31.366523 -0.000000 -0.000000
RightUpLeg -64.492527 0.145841 -5.833943
RightLeg 97.168534 -0.000000 -0.000000
RightFoot -50.808502 -32.414990 23.512629
RightToeBase 25.002874 -0.000000 -0.000000
1823
root 20.776009 23.181075 -10.709264 -181.984872 -4.771987 -181.590179
Spine 54.685171 4.214642 -0.728605
Head -29.435999 -5.439645 11.539642
LeftShoulder 11.530364 -38.252322 2.996954
LeftArm 31.896706 17.946801 -45.411095
LeftForeArm 1.707489 -0.000000 8.539292
LeftHand -3.501152 -0.000000 6.412114
LeftHandThumb1 -26.253704 0.000000 33.147579
RightShoulder 10.606426 3.199529 -2.553775
RightArm 53.892328 4.635125 41.618179
RightForeArm -29.752496 -0.000000 19.443183
RightHand -3.034597 0.000000 1.838293
RightHandThumb1 -24.326973 -0.000000 -32.862282
LeftUpLeg -56.189202 7.847181 12.195534
LeftLeg 91.836264 -0.000000 -0.000000
LeftFoot -51.369971 24.804665 -24.249511
LeftToeBase 31.447377 -0.000000 -0.000000
RightUpLeg -63.296014 -0.003645 -5.661621
RightLeg 95.800759 -0.000000 -0.000000
RightFoot -50.544493 -32.140060 23.568471
RightToeBase 24.908817 -0.000000 -0.000000
1824
root 20.798461 23.550826 -10.813934 -182.093802 -4.657950 -181.631479
Spine 53.923851 4.307273 -0.785766
Head -29.577583 -5.532950 11.417057
LeftShoulder 11.606723 -38.419936 2.906425
LeftArm 32.812103 17.635964 -45.824996
LeftForeArm 1.071122 -0.000000 8.726943
LeftHand -3.281859 -0.000000 6.451053
LeftHandThumb1 -26.253704 0.000000 33.147579
RightShoulder 10.572072 3.249305 -2.773144
RightArm 54.603879 4.719318 41.881494
RightForeArm -29.678477 -0.000000 20.068574
RightHand -2.992558 -0.000000 1.234725
RightHandThumb1 -24.326973 -0.000000 -32.862282
LeftUpLeg -54.795731 7.688354 12.127558
LeftLeg 90.239763 -0.000000 -0.000000
LeftFoot -51.109758 25.096471 -24.292932
LeftToeBase 31.461884 -0.000000 -0.000000
RightUpLeg -62.004827 -0.176225 -5.500879
RightLeg 94.379122 -0.000000 -0.000000
RightFoot -50.276215 -31.918454 23.446760
RightToeBase 24.808315 -0.000000 -0.000000
1825
root 20.826229 23.925778 -10.930089 -182.249382 -4.495559 -181.714791
Spine 53.206147 4.519279 -0.889458
Head -29.717192 -5.697038 11.412578
LeftShoulder 11.645907 -38.504221 2.878703
LeftArm 33.789990 17.294424 -46.357239
LeftForeArm 0.441488 -0.000000 8.913573
LeftHand -3.075172 0.000000 6.643621
LeftHandThumb1 -26.253704 0.000000 33.147579
RightShoulder 10.516528 3.288068 -2.884047
RightArm 55.280435 4.786996 42.202457
RightForeArm -29.633512 0.000000 20.809779
RightHand -3.077211 -0.000000 0.573586
RightHandThumb1 -24.326973 -0.000000 -32.862282
LeftUpLeg -53.355388 7.849401 11.982561
LeftLeg 88.635375 -0.000000 -0.000000
LeftFoot -50.715848 25.142263 -24.304403
LeftToeBase 31.395919 -0.000000 -0.000000
RightUpLeg -60.648336 -0.322012 -5.376490
RightLeg 92.937771 -0.000000 -0.000000
RightFoot -50.029793 -31.688574 23.296412
RightToeBase 24.958569 -0.000000 -0.000000
1826
root 20.852036 24.290408 -11.038343 -182.273301 -4.294595 -181.767925
Spine 52.268269 4.742773 -0.947521
Head -29.726073 -5.914294 11.319670
LeftShoulder 11.670009 -38.448925 2.846962
LeftArm 34.732527 16.915894 -47.030057
LeftForeArm -0.125232 0.000000 9.137006
LeftHand -2.738691 -0.000000 6.584684
LeftHandThumb1 -26.253704 0.000000 33.147579
RightShoulder 10.410889 3.283876 -3.030567
RightArm 55.976368 4.816976 42.724529
RightForeArm -29.628691 0.000000 21.551916
RightHand -3.054051 -0.000000 -0.097842
RightHandThumb1 -24.326973 -0.000000 -32.862282
LeftUpLeg -52.050379 7.860126 11.902687
LeftLeg 87.040959 -0.000000 -0.000000
LeftFoot -50.362782 25.263614 -24.407696
LeftToeBase 31.336878 -0.000000 -0.000000
RightUpLeg -59.478540 -0.511600 -5.223796
RightLeg 91.506365 -0.000000 -0.000000
RightFoot -49.690692 -31.302954 23.146229
RightToeBase 24.860272 -0.000000 -0.000000
1827
root 20.880320 24.657266 -11.158271 -182.358419 -4.129824 -181.819954
Spine 51.376506 4.909237 -0.997547
Head -29.681587 -6.103610 11.137498
LeftShoulder 11.668255 -38.394043 2.727088
LeftArm 35.638082 16.695570 -47.672804
LeftForeArm -0.681392 -0.000000 9.457444
LeftHand -2.527016 0.000000 6.610328
LeftHandThumb1 -26.253704 0.000000 33.147579
RightShoulder 10.279381 3.163795 -3.184756
RightArm 56.741422 4.762118 43.157651
RightForeArm -29.439840 -0.000000 22.343508
RightHand -3.189988 -0.000000 -0.783187
RightHandThumb1 -24.326973 -0.000000 -32.862282
LeftUpLeg -50.673318 7.826607 11.845176
LeftLeg 85.427867 -0.000000 -0.000000
LeftFoot -49.978913 25.333960 -24.525384
LeftToeBase 31.231843 -0.000000 -0.000000
RightUpLeg -58.176857 -0.544197 -5.123918
RightLeg 90.026750 -0.000000 -0.000000
RightFoot -49.437334 -31.164747 22.993784
RightToeBase 24.851351 -0.000000 -0.000000
1828
root 20.905823 25.031483 -11.280126 -182.438501 -3.983679 -181.946919
Spine 50.486177 5.086538 -1.150056
Head -29.606986 -6.300879 11.014378
LeftShoulder 11.614102 -38.284100 2.678291
LeftArm 36.516134 16.434077 -48.504432
LeftForeArm -1.125215 -0.000000 9.819200
LeftHand -2.271408 -0.000000 6.627085
LeftHandThumb1 -26.253704 0.000000 33.147579
RightShoulder 10.175679 3.187086 -3.237600
RightArm 57.339012 4.515529 43.523659
RightForeArm -29.175606 -0.000000 23.162832
RightHand -3.286895 -0.000000 -1.622283
RightHandThumb1 -24.326973 -0.000000 -32.862282
LeftUpLeg -49.245800 7.795229 11.705850
LeftLeg 83.718792 -0.000000 -0.000000
LeftFoot -49.542359 25.400749 -24.557330
LeftToeBase 31.117041 -0.000000 -0.000000
RightUpLeg -56.878136 -0.703221 -5.077041
RightLeg 88.521003 -0.000000 -0.000000
RightFoot -49.104340 -30.988151 22.734047
RightToeBase 24.783585 -0.000000 -0.000000
1829
root 20.930332 25.409855 -11.398267 -182.451185 -3.863124 -182.116617
Spine 49.518782 5.245436 -1.367313
Head -29.505651 -6.556599 10.951153
LeftShoulder 11.557242 -38.160073 2.603549
LeftArm 37.322474 16.315449 -49.349848
LeftForeArm -1.604552 -0.000000 10.295246
LeftHand -2.071868 0.000000 6.984371
LeftHandThumb1 -26.253704 0.000000 33.147579
RightShoulder 10.057342 3.147664 -3.225020
RightArm 57.973827 4.314249 44.067439
RightForeArm -29.081302 -0.000000 24.021820
RightHand -3.324359 -0.000000 -2.361710
RightHandThumb1 -24.326973 -0.000000 -32.862282
LeftUpLeg -47.793350 7.564911 11.551687
LeftLeg 81.848238 -0.000000 -0.000000
LeftFoot -49.130253 25.751029 -24.381743
LeftToeBase 31.184061 -0.000000 -0.000000
RightUpLeg -55.641588 -0.896946 -5.076364
RightLeg 86.980850 -0.000000 -0.000000
RightFoot -48.746425 -30.735820 22.603306
RightToeBase 24.590588 -0.000000 -0.000000
1830
root 20.962371 25.791237 -11.526061 -182.499585 -3.735635 -182.274756
Spine 48.581450 5.444560 -1.564184
Head -29.373538 -6.756319 10.851958
LeftShoulder 11.497919 -38.007790 2.505097
LeftArm 38.056559 16.217842 -50.297934
LeftForeArm -1.950253 0.000000 10.904545
LeftHand -1.942713 -0.000000 7.174124
LeftHandThumb1 -26.253704 0.000000 33.147579
RightShoulder 9.891839 3.117984 -3.172468
RightArm 58.632060 4.032056 44.706129
RightForeArm -28.860119 -0.000000 24.747815
RightHand -3.216807 -0.000000 -3.050806
RightHandThumb1 -24.326973 -0.000000 -32.862282
LeftUpLeg -46.236190 7.472895 11.426362
LeftLeg 79.867993 -0.000000 -0.000000
LeftFoot -48.646926 26.095191 -23.903470
LeftToeBase 31.281558 -0.000000 -0.000000
RightUpLeg -54.346473 -1.036581 -5.062887
RightLeg 85.415236 -0.000000 -0.000000
RightFoot -48.417486 -30.590131 22.481503
RightToeBase 24.586509 -0.000000 -0.000000
1831
root 20.991037 26.170153 -11.654895 -182.625828 -3.530639 -182.484831
Spine 47.749701 5.611403 -1.919773
Head -29.273244 -6.860683 10.724663
LeftShoulder 11.202533 -38.014304 2.609305
LeftArm 38.544841 16.165558 -51.493934
LeftForeArm -1.999685 0.000000 11.622196
LeftHand -1.865837 0.000000 7.692411
LeftHandThumb1 -26.253704 0.000000 33.147579
RightShoulder 9.829931 2.984036 -3.183312
RightArm 59.422034 3.791426 45.509293
RightForeArm -28.677213 -0.000000 25.478098
RightHand -3.170150 -0.000000 -3.849848
RightHandThumb1 -24.326973 -0.000000 -32.862282
LeftUpLeg -44.645934 7.490870 11.233867
LeftLeg 77.955367 -0.000000 -0.000000
LeftFoot -48.082128 26.208476 -23.721079
LeftToeBase 31.209864 -0.000000 -0.000000
RightUpLeg -52.997408 -1.089089 -5.118823
RightLeg 83.847782 -0.000000 -0.000000
RightFoot -48.031956 -30.391037 22.325013
RightToeBase 24.466376 -0.000000 -0.000000
1832
root 21.023422 26.551919 -11.790471 -182.757643 -3.352841 -182.609905
Spine 46.905310 5.749547 -2.135275
Head -29.124542 -7.036553 10.560257
LeftShoulder 10.879110 -37.770321 2.620713
LeftArm 39.252230 16.178234 -52.568105
LeftForeArm -2.244073 -0.000000 12.302544
LeftHand -1.576975 0.000000 7.555580
LeftHandThumb1 -26.253704 0.000000 33.147579
RightShoulder 9.748575 2.936942 -3.173905
RightArm 60.046352 3.418638 46.352634
RightForeArm -28.427956 0.000000 26.257980
RightHand -3.189690 0.000000 -4.763586
RightHandThumb1 -24.326973 -0.000000 -32.862282
LeftUpLeg -43.060579 7.397708 11.151988
LeftLeg 76.035186 -0.000000 -0.000000
LeftFoot -47.476703 26.340540 -23.646311
LeftToeBase 31.047274 -0.000000 -0.000000
RightUpLeg -51.602271 -1.188564 -5.083379
RightLeg 82.208213 -0.000000 -0.000000
RightFoot -47.577775 -30.245644 22.042359
RightToeBase 24.522875 -0.000000 -0.000000
